# xmcd
#
# Track frame offsets: 
#        180
#        14159
#        37252
#        52155
#        67797
#        80703
#        101320
#        110554
#        127669
#        144916
#        159445
#        173581
#        186788
#        205743
#        223677
#
# Disc length: 3217 seconds
#
# Revision: 1
# Processed by: cddbd v1.5.2PL0 Copyright (c) Steve Scherf et al.
# Submitted via: ExactAudioCopy v0.99pb5
#
DISCID=ce0c8f0f
DTITLE=조용필 - 조용필 베스트 CD5
DYEAR=2011
DGENRE=K_Pop
TTITLE0=허공
TTITLE1=한강
TTITLE2=여자의 정
TTITLE3=나는 너 좋아
TTITLE4=이별의 뒤안길
TTITLE5=황진이
TTITLE6=선구자
TTITLE7=바람과 갈대
TTITLE8=눈물의 파티
TTITLE9=차라리 학이 되리라
TTITLE10=무정유정
TTITLE11=영원속으로
TTITLE12=눈물로 보이는 그대
TTITLE13=어제 오늘 그리고
TTITLE14=프리마돈나
EXTD=
EXTT0=
EXTT1=
EXTT2=
EXTT3=
EXTT4=
EXTT5=
EXTT6=
EXTT7=
EXTT8=
EXTT9=
EXTT10=
EXTT11=
EXTT12=
EXTT13=
EXTT14=
PLAYORDER=
